PathFileType	4	(X/Y/Z)	s07c0102.trc
DataRate	CameraRate	NumFrames	NumMarkers	Units	OrigDataRate	OrigDataStartFrame	OrigNumFrames
200	200	4	48	mm	200	250	2000
Frame#	Time	racr			lacr			c7			jug			rlel			rdr			llel			ldr			s2			lic			ric			lasi			rasi			rpsi			lpsi			rgt			lgt			rth1			rth2			rth3			rth4			rlfc			rmfc			rsh1			rsh2			rsh3			rsh4			rlmal			rcal			rtoe			rmt5			lth1			lth2			lth4			lth3			llfc			lmfc			lsh1			lsh2			lsh3			lsh4			llmal			lcal			ltoe			lmt5			SBIKE			LBIKE			RBIKE			
		X1	Y1	Z1	X2	Y2	Z2	X3	Y3	Z3	X4	Y4	Z4	X5	Y5	Z5	X6	Y6	Z6	X7	Y7	Z7	X8	Y8	Z8	X9	Y9	Z9	X10	Y10	Z10	X11	Y11	Z11	X12	Y12	Z12	X13	Y13	Z13	X14	Y14	Z14	X15	Y15	Z15	X16	Y16	Z16	X17	Y17	Z17	X18	Y18	Z18	X19	Y19	Z19	X20	Y20	Z20	X21	Y21	Z21	X22	Y22	Z22	X23	Y23	Z23	X24	Y24	Z24	X25	Y25	Z25	X26	Y26	Z26	X27	Y27	Z27	X28	Y28	Z28	X29	Y29	Z29	X30	Y30	Z30	X31	Y31	Z31	X32	Y32	Z32	X33	Y33	Z33	X34	Y34	Z34	X35	Y35	Z35	X36	Y36	Z36	X37	Y37	Z37	X38	Y38	Z38	X39	Y39	Z39	X40	Y40	Z40	X41	Y41	Z41	X42	Y42	Z42	X43	Y43	Z43	X44	Y44	Z44	X45	Y45	Z45	X46	Y46	Z46	X47	Y47	Z47	X48	Y48	Z48	
250	1.2500	464.583377	1384.234463	-85.719221	459.024690	1369.478279	-383.567247	441.643700	1428.130853	-235.769883	391.153887	1291.561215	-231.731322	475.742472	1055.185065	31.423780	716.439834	915.816424	-69.656519	471.278977	1056.897537	-516.220262	717.226066	913.332745	-421.924204	-132.789528	1212.379745	-251.804511	36.578967	1246.902619	-387.477894	33.812555	1239.718857	-96.179818	62.593603	1165.180558	-362.223975	41.774763	1183.015677	-113.650447	-105.412832	1249.306102	-199.268933	-88.461978	1256.970640	-306.638673	-32.447594	1129.902791	-49.763363	-30.717204	1096.185470	-419.567743	107.010319	1074.274441	-52.059116	193.305155	1063.710001	-64.405224	264.131882	1015.853574	-62.804832	203.366803	1094.066814	-83.683746	386.636578	940.019948	-97.211306	380.619195	925.091783	-203.631666	334.240096	807.265030	-73.116468	318.160884	720.613249	-92.304258	266.525460	651.668110	-86.286642	333.941147	718.436605	-128.303360	204.653242	529.864732	-86.468761	135.275099	494.055305	-113.815891	420.668698	447.373395	-132.497505	342.045117	421.904235	-60.075696	24.776629	986.374252	-427.017942	91.560166	928.685902	-428.956080	121.411244	948.524537	-420.615958	120.567301	844.665870	-424.185408	204.782417	685.742547	-391.346857	191.643766	670.476763	-294.158163	116.093401	564.109859	-413.190176	84.117716	486.506544	-392.391791	16.950310	427.565047	-400.933487	86.868908	488.589569	-350.504404	-68.093521	320.945404	-398.694958	-144.480809	289.440883	-365.330668	139.025699	232.124910	-358.196041	57.009190	218.074171	-423.375015	-263.837571	970.700821	-238.684667	-83.385645	78.952907	-437.871488	-83.387071	78.899170	-40.419782	
251	1.2550	464.594386	1384.286528	-85.701041	459.047880	1369.496936	-383.557282	441.642691	1428.163831	-235.744166	391.174916	1291.533764	-231.753722	475.779927	1055.224835	31.397547	716.457718	915.818046	-69.653117	471.284734	1056.911079	-516.221051	717.230660	913.349141	-421.902505	-132.753258	1212.373642	-251.792492	36.591316	1246.885772	-387.442225	33.826679	1239.690449	-96.200241	62.619927	1165.159734	-362.219003	41.782898	1182.974232	-113.632752	-105.389358	1249.290037	-199.264203	-88.451329	1256.941946	-306.639420	-32.444456	1129.885133	-49.759265	-30.682571	1096.154120	-419.553682	107.020985	1074.255730	-52.062461	193.316972	1063.680973	-64.402852	264.132253	1015.834388	-62.800899	203.374086	1094.051755	-83.699935	386.655954	940.025201	-97.216857	380.639092	925.105022	-203.644191	334.261602	807.252183	-73.143157	318.160615	720.614534	-92.303938	266.544127	651.659731	-86.294223	333.948248	718.426599	-128.338751	204.693355	529.849277	-86.482040	135.305306	494.049326	-113.806705	420.697238	447.343843	-132.507477	342.034633	421.865386	-60.072727	24.786178	986.344058	-427.010200	91.574398	928.664248	-428.948781	121.409854	948.512288	-420.614160	120.581230	844.638781	-424.178354	204.822812	685.727791	-391.333555	191.675930	670.470550	-294.168826	116.127408	564.100794	-413.199255	84.167447	486.477753	-392.342368	16.955569	427.568568	-400.938316	86.895295	488.594393	-350.483365	-68.107368	320.955562	-398.677513	-144.499635	289.488989	-365.296828	139.006299	232.145867	-358.193871	56.999901	218.083682	-423.370066	-263.829242	970.699835	-238.679568	-83.389526	78.967062	-437.865338	-83.374404	78.899001	-40.410177	
252	1.2600	464.627894	1384.324873	-85.687669	459.061592	1369.501578	-383.556867	441.646801	1428.186409	-235.732748	391.155601	1291.514542	-231.723580	475.815255	1055.268136	31.382269	716.459888	915.822862	-69.647775	471.302140	1056.921635	-516.215389	717.248290	913.351128	-421.917089	-132.745985	1212.357414	-251.791781	36.606742	1246.853831	-387.414300	33.860968	1239.665898	-96.201772	62.637035	1165.127774	-362.216869	41.813979	1182.930561	-113.605896	-105.382837	1249.286536	-199.260405	-88.430041	1256.932272	-306.642379	-32.429960	1129.851417	-49.761593	-30.682771	1096.138996	-419.552424	107.020294	1074.232497	-52.066378	193.321538	1063.670320	-64.406054	264.140621	1015.832855	-62.807573	203.375924	1094.041197	-83.681979	386.662807	940.012034	-97.191362	380.666352	925.106029	-203.635186	334.294964	807.254941	-73.136069	318.212093	720.623800	-92.287161	266.587843	651.663366	-86.284922	334.003270	718.424452	-128.333861	204.744340	529.838507	-86.490666	135.351270	494.051929	-113.805849	420.711412	447.283936	-132.495681	342.099658	421.841979	-60.069794	24.781744	986.341472	-427.018337	91.573850	928.647179	-428.946827	121.423100	948.491548	-420.607006	120.577307	844.625274	-424.168258	204.826090	685.719040	-391.317925	191.703898	670.467929	-294.144625	116.142959	564.103277	-413.189205	84.150454	486.496965	-392.337780	16.955120	427.577297	-400.914344	86.874075	488.587195	-350.465033	-68.131138	320.985844	-398.688610	-144.519700	289.524955	-365.295288	139.305635	232.672086	-358.806361	56.983187	218.101340	-423.365254	-263.820948	970.696452	-238.664264	-83.392831	78.942229	-437.880868	-83.360881	78.901440	-40.412671	
253	1.2650	464.640614	1384.386573	-85.706200	459.070196	1369.496820	-383.544759	441.638590	1428.210620	-235.692896	391.136850	1291.497747	-231.706627	475.836461	1055.326837	31.356921	716.478152	915.815800	-69.639975	471.322671	1056.936220	-516.233510	717.247367	913.339112	-421.910417	-132.743686	1212.359534	-251.775543	36.645682	1246.868929	-387.453962	33.869211	1239.640393	-96.212957	62.654987	1165.127334	-362.212142	41.816124	1182.903782	-113.610383	-105.374924	1249.283561	-199.252897	-88.417745	1256.925276	-306.646033	-32.422565	1129.856207	-49.758745	-30.675332	1096.141055	-419.554010	107.028341	1074.215480	-52.071179	193.319002	1063.660327	-64.404397	264.160070	1015.816105	-62.798249	203.375762	1094.034139	-83.679813	386.693285	940.024657	-97.204440	380.678702	925.093853	-203.632163	334.321569	807.257277	-73.122602	318.269299	720.625105	-92.284878	266.628036	651.660898	-86.281563	334.024468	718.407613	-128.315257	204.797966	529.823930	-86.495667	135.394123	494.061926	-113.804114	420.754052	447.232995	-132.514227	342.124766	421.814365	-60.054433	24.796618	986.311995	-427.006086	91.574414	928.633111	-428.949745	121.425857	948.476618	-420.610626	120.593639	844.608024	-424.160034	204.840805	685.728382	-391.305550	191.721779	670.477867	-294.103954	116.157072	564.113080	-413.167666	84.151270	486.496140	-392.337817	16.941369	427.588349	-400.916873	86.839923	488.591890	-350.468544	-68.153580	321.020633	-398.709573	-144.536930	289.532460	-365.295460	139.036414	232.226543	-358.363623	56.959720	218.126684	-423.360921	-263.832558	970.688823	-238.670118	-83.409858	78.962837	-437.865183	-83.374530	78.896637	-40.403394	
